<svg xmlns="http://www.w3.org/2000/svg" xmlns:xlink="http://www.w3.org/1999/xlink" viewBox="0 0 395.01 337.55"><defs><style>.cls-1{mask:url(#mask);filter:url(#luminosity-noclip-4);}.cls-2,.cls-4,.cls-6{mix-blend-mode:multiply;}.cls-2{fill:url(#linear-gradient);}.cls-3{mask:url(#mask-2);filter:url(#luminosity-noclip-5);}.cls-4{fill:url(#linear-gradient-2);}.cls-5{mask:url(#mask-3);filter:url(#luminosity-noclip-6);}.cls-6{fill:url(#linear-gradient-3);}.cls-7{fill:#c2b59b;}.cls-8{fill:#605449;}.cls-9{fill:#726658;}.cls-10{fill:#d2c7b2;}.cls-11{mask:url(#mask-4);}.cls-12{fill:url(#linear-gradient-4);}.cls-13{mask:url(#mask-5);}.cls-14{fill:url(#linear-gradient-5);}.cls-15{mask:url(#mask-6);}.cls-16{fill:url(#linear-gradient-6);}.cls-17{filter:url(#luminosity-noclip-3);}.cls-18{filter:url(#luminosity-noclip-2);}.cls-19{filter:url(#luminosity-noclip);}</style><filter id="luminosity-noclip" x="178.14" y="-8380.29" width="64.68" height="32766" filterUnits="userSpaceOnUse" color-interpolation-filters="sRGB"><feFlood flood-color="#fff" result="bg"/><feBlend in="SourceGraphic" in2="bg"/></filter><mask id="mask" x="178.14" y="-8380.29" width="64.68" height="32766" maskUnits="userSpaceOnUse"><g class="cls-19"/></mask><linearGradient id="linear-gradient" x1="204.41" y1="-169.57" x2="256.61" y2="-169.57" gradientTransform="translate(66.06 299.12) rotate(-23.82)" gradientUnits="userSpaceOnUse"><stop offset="0" stop-color="#fff"/><stop offset="0.21" stop-color="#b9b9b9"/><stop offset="0.42" stop-color="#787878"/><stop offset="0.61" stop-color="#444"/><stop offset="0.77" stop-color="#1f1f1f"/><stop offset="0.91" stop-color="#080808"/><stop offset="0.99"/></linearGradient><filter id="luminosity-noclip-2" x="104.55" y="-8380.29" width="70.41" height="32766" filterUnits="userSpaceOnUse" color-interpolation-filters="sRGB"><feFlood flood-color="#fff" result="bg"/><feBlend in="SourceGraphic" in2="bg"/></filter><mask id="mask-2" x="104.55" y="-8380.29" width="70.41" height="32766" maskUnits="userSpaceOnUse"><g class="cls-18"/></mask><linearGradient id="linear-gradient-2" x1="139.92" y1="-188.5" x2="215.4" y2="-188.5" xlink:href="#linear-gradient"/><filter id="luminosity-noclip-3" x="88.2" y="-8380.29" width="37.03" height="32766" filterUnits="userSpaceOnUse" color-interpolation-filters="sRGB"><feFlood flood-color="#fff" result="bg"/><feBlend in="SourceGraphic" in2="bg"/></filter><mask id="mask-3" x="88.2" y="-8380.29" width="37.03" height="32766" maskUnits="userSpaceOnUse"><g class="cls-17"/></mask><linearGradient id="linear-gradient-3" x1="100.55" y1="-173.74" x2="137.65" y2="-165.18" gradientTransform="translate(66.06 299.12) rotate(-23.82)" gradientUnits="userSpaceOnUse"><stop offset="0.01"/><stop offset="0.09" stop-color="#080808"/><stop offset="0.23" stop-color="#1f1f1f"/><stop offset="0.39" stop-color="#444"/><stop offset="0.58" stop-color="#787878"/><stop offset="0.79" stop-color="#b9b9b9"/><stop offset="1" stop-color="#fff"/></linearGradient><filter id="luminosity-noclip-4" x="178.14" y="6.24" width="64.68" height="88.21" filterUnits="userSpaceOnUse" color-interpolation-filters="sRGB"><feFlood flood-color="#fff" result="bg"/><feBlend in="SourceGraphic" in2="bg"/></filter><mask id="mask-4" x="178.14" y="6.24" width="64.68" height="88.21" maskUnits="userSpaceOnUse"><g class="cls-1"><path class="cls-2" d="M237,92.44c3.55-2.47,5-7,5.48-11.34,1.22-9.91-1-20-5-29.15s-10-17.3-16.39-24.95c-7.5-8.93-16.42-17.59-27.78-20.23-3.42-.79-7.3-.92-10.12,1.15-3.17,2.33-4,6.64-4.45,10.55-1.74,16.48.4,33.73,8.5,48.19s22.64,25.75,39.11,27.59C230,94.68,234,94.55,237,92.44Z"/></g></mask><linearGradient id="linear-gradient-4" x1="204.41" y1="-169.57" x2="256.61" y2="-169.57" gradientTransform="translate(66.06 299.12) rotate(-23.82)" gradientUnits="userSpaceOnUse"><stop offset="0" stop-color="#9b8579"/><stop offset="0.99" stop-color="#9b8579"/></linearGradient><filter id="luminosity-noclip-5" x="104.55" y="6.13" width="70.41" height="86.38" filterUnits="userSpaceOnUse" color-interpolation-filters="sRGB"><feFlood flood-color="#fff" result="bg"/><feBlend in="SourceGraphic" in2="bg"/></filter><mask id="mask-5" x="104.55" y="6.13" width="70.41" height="86.38" maskUnits="userSpaceOnUse"><g class="cls-3"><path class="cls-4" d="M104.6,39.4c.29,2,1.65,3.72,3,5.21,6.16,6.61,13.9,11.47,21.2,16.8s14.39,11.42,18.42,19.51c1.65,3.31,2.86,7,5.76,9.34,3.47,2.75,8.44,2.63,12.71,1.47,2.85-.77,5.74-2.06,7.46-4.47,2.14-3,2-7,1.35-10.65-1.31-7.31-4.32-14.23-5.68-21.53-2.44-13.14.61-26.66,4.46-39.45.54-1.8,1.1-3.73.57-5.53-.93-3.17-4.95-4.53-8.17-3.77s-5.85,3-8.47,5a81.16,81.16,0,0,1-30,14.42c-5.77,1.42-11.81,2.25-17,5.13C107.1,32.67,104.09,35.81,104.6,39.4Z"/></g></mask><linearGradient id="linear-gradient-5" x1="139.92" y1="-188.5" x2="215.4" y2="-188.5" xlink:href="#linear-gradient-4"/><filter id="luminosity-noclip-6" x="88.2" y="53.48" width="37.03" height="87.52" filterUnits="userSpaceOnUse" color-interpolation-filters="sRGB"><feFlood flood-color="#fff" result="bg"/><feBlend in="SourceGraphic" in2="bg"/></filter><mask id="mask-6" x="88.2" y="53.48" width="37.03" height="87.52" maskUnits="userSpaceOnUse"><g class="cls-5"><path class="cls-6" d="M96.06,53.58c1.71-.37,3.45.36,5,1.16,12.16,6.34,20.57,18.85,23.2,32.3s-.19,27.67-6.52,39.83A38,38,0,0,1,109.6,138c-2.41,2.14-5.8,3.87-8.75,2.6-2.47-1.06-3.69-3.8-4.61-6.32A134,134,0,0,1,91.11,60.8C91.75,57.77,93,54.23,96.06,53.58Z"/></g></mask><linearGradient id="linear-gradient-6" x1="100.55" y1="-173.74" x2="137.65" y2="-165.18" gradientTransform="translate(66.06 299.12) rotate(-23.82)" gradientUnits="userSpaceOnUse"><stop offset="0.01" stop-color="#9b8579"/><stop offset="1" stop-color="#9b8579"/></linearGradient></defs><title>cowboy-hat</title><g id="Layer_2" data-name="Layer 2"><g id="Layer_1-2" data-name="Layer 1"><path class="cls-7" d="M285.81,308.7A222.15,222.15,0,0,1,22.63,275.9c-10.09-9.66-19.63-21-22-34.77s2.94-28.23,11.28-39.61C30.32,176.35,61.36,164,91.41,155.6S153,141,178.95,123.72c18.94.32,35.28-12.11,51.36-22.12a285.65,285.65,0,0,1,98-38.18c10.31-1.94,21.08-3.28,31.18-.47,18.21,5.06,30.59,23,34.11,41.61s-.3,37.71-5.13,56c-7.91,29.94-18.68,59.38-35.23,85.55S312.75,293.43,285.81,308.7Z"/><path class="cls-8" d="M348.85,178.76c-7.1-12-20.22-18.88-32.42-25.67s-25-15.09-30-28.12c.83,10.09,7,19,14.39,26s16,12.4,23.63,19,14.47,14.92,16.5,24.83C343.71,189.72,346.09,183.83,348.85,178.76Z"/><path class="cls-8" d="M352.1,158.62l-25.45-9.33c-8.45-3.1-17-6.24-24.47-11.27s-13.86-12.21-16.12-20.93c17,17,40.93,28,64.94,27C351.4,148.86,351.7,153.83,352.1,158.62Z"/><path class="cls-9" d="M265.71,94.76c4.84-1.94,10.59,0,14.36,3.61S286,107,287.51,112a85.43,85.43,0,0,1,1.3,46c-1.8,7.18-4.65,14.29-9.71,19.7-5.67,6.06-13.55,9.44-20.6,13.81-10.73,6.66-19.77,15.81-30.6,22.31-15.92,9.55-34.71,12.82-53,15.92-11.5,1.94-23.29,3.89-34.75,1.76-12.92-2.4-21.58-15.27-32.94-21.86-4-2.3-6.32-6.7-7.22-11.18s-.51-9.11-.12-13.67c.35-4.11,1-8.72,4.25-11.21C151.24,137.65,213.32,122.38,265.71,94.76Z"/><path class="cls-10" d="M279.11,110.38c-4.34-14.92-13.35-28-22.21-40.72L241.34,47.26C234,36.67,226.54,26,217.1,17.19s-21.18-15.65-34-17-23.45,7-34.59,13.49c-13.18,7.71-29.75,7.53-43.23,14.7C88.69,37.17,79.36,56.11,77.56,74.82s2.82,37.4,8.12,55.43q9.26,31.48,21.44,62a29.28,29.28,0,0,0,19,17.26,86.18,86.18,0,0,0,23.69,3.84c29,.15,56.72-11.2,82.6-24.22,15.2-7.65,30.52-16.31,40.86-29.82S283.87,126.71,279.11,110.38Z"/><g class="cls-11"><path class="cls-12" d="M237,92.44c3.55-2.47,5-7,5.48-11.34,1.22-9.91-1-20-5-29.15s-10-17.3-16.39-24.95c-7.5-8.93-16.42-17.59-27.78-20.23-3.42-.79-7.3-.92-10.12,1.15-3.17,2.33-4,6.64-4.45,10.55-1.74,16.48.4,33.73,8.5,48.19s22.64,25.75,39.11,27.59C230,94.68,234,94.55,237,92.44Z"/></g><g class="cls-13"><path class="cls-14" d="M104.6,39.4c.29,2,1.65,3.72,3,5.21,6.16,6.61,13.9,11.47,21.2,16.8s14.39,11.42,18.42,19.51c1.65,3.31,2.86,7,5.76,9.34,3.47,2.75,8.44,2.63,12.71,1.47,2.85-.77,5.74-2.06,7.46-4.47,2.14-3,2-7,1.35-10.65-1.31-7.31-4.32-14.23-5.68-21.53-2.44-13.14.61-26.66,4.46-39.45.54-1.8,1.1-3.73.57-5.53-.93-3.17-4.95-4.53-8.17-3.77s-5.85,3-8.47,5a81.16,81.16,0,0,1-30,14.42c-5.77,1.42-11.81,2.25-17,5.13C107.1,32.67,104.09,35.81,104.6,39.4Z"/></g><g class="cls-15"><path class="cls-16" d="M96.06,53.58c1.71-.37,3.45.36,5,1.16,12.16,6.34,20.57,18.85,23.2,32.3s-.19,27.67-6.52,39.83A38,38,0,0,1,109.6,138c-2.41,2.14-5.8,3.87-8.75,2.6-2.47-1.06-3.69-3.8-4.61-6.32A134,134,0,0,1,91.11,60.8C91.75,57.77,93,54.23,96.06,53.58Z"/></g></g></g></svg>