<svg id="Layer_1" data-name="Layer 1" xmlns="http://www.w3.org/2000/svg" viewBox="0 0 200 200"><defs><style>.cls-1{fill:none;}.cls-2{fill:#fff;}</style></defs><title>home</title><circle class="cls-1" cx="100" cy="100" r="100"/><path class="cls-2" d="M60.48,21.48,64.18,20l2.56,6.28L72.36,24l-2.55-6.27,3.68-1.5,6.64,16.3L76.44,34l-2.77-6.8-5.62,2.29,2.77,6.8-3.7,1.51Z" transform="translate(0)"/><path class="cls-2" d="M80.82,23c-.81-5.69,2-9.42,6.63-10.09s8.38,2.16,9.19,7.82S94.74,30.36,90,31,81.63,28.74,80.82,23Zm11.79-1.69c-.5-3.48-2.29-5.35-4.67-5S84.36,19,84.86,22.47s2.34,5.5,4.69,5.17S93.11,24.87,92.61,21.36Z" transform="translate(0)"/><path class="cls-2" d="M102,12l4.18.48,2,8.2.69,3.18H109l1.4-2.94,3.75-7.53,4.18.48-2,17.49L112.6,31l.74-6.41c.2-1.72.82-4.23,1.2-5.9h-.11l-1.89,3.89L109,29l-1.58-.18-1.9-7.09-.93-4.21h-.11c0,1.71,0,4.3-.18,6l-.74,6.41L100,29.52Z" transform="translate(0)"/><path class="cls-2" d="M125.14,15.9l10.37,3.8-1.15,3.14-6.61-2.42-1.22,3.32,5.63,2.06L131,28.91l-5.63-2.06L124,30.65l6.87,2.52-1.15,3.14-10.62-3.89Z" transform="translate(0)"/></svg>